<svg width="142" height="200" viewBox="0 0 142 200" fill="none" xmlns="http://www.w3.org/2000/svg">
<g clip-path="url(#clip0)">
<path d="M142 39.3047L129.063 183.914L70.9131 200L12.9229 183.936L0 39.3047H142Z" fill="#264DE4"/>
<path d="M117.988 174.705L129.043 51.1305H71V187.704L117.988 174.705Z" fill="#2965F1"/>
<path d="M29.6254 104.772L31.2187 122.51H71V104.772H29.6254Z" fill="#221E22"/>
<path d="M71 68.8691H70.9385H26.424L28.0399 86.6078H71V68.8691Z" fill="#221E22"/>
<path d="M71 169.297V150.841L70.9221 150.862L51.1238 145.527L49.8582 131.38H40.2378H32.0129L34.5035 159.232L70.9182 169.319L71 169.297Z" fill="#221E22"/>
<path d="M33.4188 0H54.9497V8.98438H42.4226V17.9688H54.9497V26.9531H33.4188V0Z" fill="white"/>
<path d="M59.2559 0H80.7868V7.8125H68.2597V9.375H80.7868V27.3438H59.2559V19.1406H71.7829V17.5781H59.2559V0Z" fill="white"/>
<path d="M85.093 0H106.624V7.8125H94.0968V9.375H106.624V27.3438H85.093V19.1406H97.62V17.5781H85.093V0Z" fill="white"/>
<path d="M92.8288 122.511L90.7654 145.516L70.9385 150.856V169.311L107.382 159.232L107.65 156.235L111.827 109.536L112.261 104.772L115.47 68.8691H70.9385V86.6078H95.988L94.3705 104.772H70.9385V122.511H92.8288Z" fill="#221E22"/>
</g>
<defs>
<clipPath id="clip0">
<rect width="142" height="200" fill="white"/>
</clipPath>
</defs>
</svg>
