<svg width="200" height="200" viewBox="0 0 200 200" fill="none" xmlns="http://www.w3.org/2000/svg">
<path d="M42.3438 0H51.3281V8.90625H59.6094V0H68.5938V26.9531H59.6094V17.9688H51.4063V26.9531H42.3438V0ZM80.4687 8.98438H72.5391V0H97.4219V8.98438H89.4531V26.9531H80.4687V8.98438ZM101.367 0H110.781L116.562 9.49219L122.344 0H131.758V26.9531H122.773V13.5937L116.484 23.2812L110.195 13.5937V26.9531H101.367V0ZM136.211 0H145.195V18.0469H157.93V26.9531H136.211" fill="white"/>
<path d="M42.0312 183.984L29.1406 39.2969H170.859L157.969 183.906L99.8828 200" fill="#E44D26"/>
<path d="M100 187.695V51.1719H157.93L146.875 174.609" fill="#F16529"/>
<path d="M55.4688 68.8672H100V86.6016H74.9219L76.5625 104.766H100V122.461H60.3125L55.4688 68.8672ZM61.0937 131.367H78.9062L80.1562 145.547L100 150.859V169.375L63.5938 159.219" fill="#221E22"/>
<path d="M144.375 68.8672H99.9219V86.6016H142.734L144.375 68.8672ZM141.133 104.766H99.9219V122.5H121.797L119.727 145.547L99.9219 150.859V169.297L136.25 159.219" fill="#221E22"/>
</svg>
