<svg width="252" height="252" viewBox="0 0 252 252" fill="none" xmlns="http://www.w3.org/2000/svg">
<path d="M200.229 200.23C190.586 209.873 179.358 217.443 166.859 222.73C153.922 228.202 140.175 230.977 126 230.977C111.824 230.977 98.0774 228.202 85.1407 222.73C72.6411 217.443 61.4136 209.873 51.7701 200.23C42.1267 190.586 34.5563 179.359 29.2696 166.859C23.7978 153.923 21.0232 140.176 21.0232 126C21.0232 111.825 23.7978 98.0782 29.2696 85.1415C34.5563 72.6419 42.1267 61.4144 51.7701 51.7709C61.4136 42.1274 72.6411 34.5571 85.1407 29.2701C98.0774 23.7984 111.824 21.024 126 21.024C140.175 21.024 153.922 23.7984 166.859 29.2701C179.358 34.5571 190.586 42.1274 200.229 51.7709C209.873 61.4144 217.443 72.6419 222.73 85.1415C228.202 98.0782 230.976 111.825 230.976 126C230.976 140.176 228.202 153.923 222.73 166.859C217.443 179.359 209.873 190.586 200.229 200.23ZM126 12.6881C63.4191 12.6881 12.6873 63.4197 12.6873 126C12.6873 188.581 63.4191 239.313 126 239.313C188.58 239.313 239.312 188.581 239.312 126C239.312 63.4197 188.58 12.6881 126 12.6881" fill="#ECA72C" fill-opacity="0.5"/>
<path d="M69.4788 163.891H68.4788V162.891V101.876L60.5904 96.1605L58.0927 94.3507H61.1772H81.9264C88.2831 94.3507 93.4363 99.5037 93.4363 105.861V152.381C93.4363 158.738 88.2831 163.891 81.9264 163.891H69.4788ZM100.952 68.0663H35.9927L26.4466 88.9907L38.585 97.4212L39.0145 97.7195V98.2425V189.64H100.96L123.13 173.59V84.5814L100.952 68.0663Z" stroke="#ECA72C" stroke-width="2"/>
<path d="M188.387 95.3507V111.985H213.446L220.269 68.0663H196.953L193.492 75.7057L192.98 76.8353L191.985 76.0957L181.177 68.0663H156.074L134.062 84.579V173.593L155.962 189.64H215.751V147.737H188.387V162.891V163.891H187.387H174.704C168.605 163.891 163.661 158.947 163.661 152.848V101.889L155.769 96.16L153.276 94.3507H156.356H187.387H188.387V95.3507Z" stroke="#ECA72C" stroke-width="2"/>
</svg>
